<svg xmlns="http://www.w3.org/2000/svg" xmlns:xlink="http://www.w3.org/1999/xlink" width="500" zoomAndPan="magnify" viewBox="0 0 375 374.999991" height="500" preserveAspectRatio="xMidYMid meet" version="1.0"><defs><g/><clipPath id="c346e9ad0b"><path d="M 103.421875 138.769531 L 124.421875 138.769531 L 124.421875 170.269531 L 103.421875 170.269531 Z M 103.421875 138.769531 " clip-rule="nonzero"/></clipPath></defs><g clip-path="url(#c346e9ad0b)"><path fill="#ffffff" d="M 117.765625 148.21875 L 123.074219 148.21875 C 123.511719 148.21875 123.886719 148.445312 124.082031 148.832031 C 124.277344 149.21875 124.242188 149.652344 123.980469 150 L 109.957031 168.683594 C 109.84375 168.832031 109.71875 168.9375 109.554688 169.019531 L 107.316406 170.125 C 106.988281 170.289062 106.632812 170.285156 106.300781 170.121094 L 105.402344 169.667969 C 104.90625 169.417969 104.667969 168.863281 104.835938 168.339844 L 108.140625 157.90625 L 104.773438 157.90625 C 104.414062 157.90625 104.113281 157.761719 103.890625 157.484375 C 103.667969 157.214844 103.589844 156.886719 103.667969 156.546875 L 107.210938 140.769531 C 107.289062 140.429688 107.492188 140.167969 107.808594 140.011719 L 110.042969 138.90625 C 110.210938 138.824219 110.371094 138.785156 110.558594 138.785156 L 121.753906 138.882812 C 122.175781 138.886719 122.535156 139.101562 122.738281 139.464844 C 122.9375 139.832031 122.921875 140.25 122.695312 140.601562 L 117.765625 148.21875 " fill-opacity="1" fill-rule="evenodd"/></g><path fill="#000000" d="M 110.960938 139.910156 L 121.742188 140 L 115.703125 149.335938 L 123.074219 149.335938 L 109.050781 168.019531 L 106.8125 169.125 L 105.914062 168.671875 L 109.679688 156.789062 L 104.773438 156.789062 L 108.3125 141.011719 L 110.550781 139.90625 L 110.960938 139.910156 " fill-opacity="1" fill-rule="evenodd"/><path fill="#ee2d5a" d="M 120.8125 140.496094 L 110.957031 140.414062 L 107.644531 155.171875 L 112.613281 155.171875 L 108.636719 167.714844 L 122.054688 149.84375 L 114.765625 149.84375 L 120.8125 140.496094 " fill-opacity="1" fill-rule="evenodd"/><g fill="#ee2d5a" fill-opacity="1"><g transform="translate(84.689224, 163.862831)"><g><path d="M 6.53125 3.15625 L 2.421875 3.15625 C 1.992188 3.15625 1.679688 3.054688 1.484375 2.859375 C 1.296875 2.671875 1.203125 2.363281 1.203125 1.9375 L 1.203125 -15.28125 C 1.203125 -15.507812 1.226562 -15.703125 1.28125 -15.859375 C 1.34375 -16.023438 1.4375 -16.160156 1.5625 -16.265625 L 5 -19.15625 C 5.082031 -19.226562 5.195312 -19.285156 5.34375 -19.328125 C 5.5 -19.378906 5.664062 -19.40625 5.84375 -19.40625 L 17.703125 -19.40625 C 18.128906 -19.40625 18.4375 -19.304688 18.625 -19.109375 C 18.820312 -18.910156 18.921875 -18.597656 18.921875 -18.171875 L 18.921875 -15.015625 C 18.921875 -14.785156 18.890625 -14.585938 18.828125 -14.421875 C 18.765625 -14.265625 18.671875 -14.132812 18.546875 -14.03125 L 15.578125 -11.5625 C 15.984375 -11.5625 16.28125 -11.460938 16.46875 -11.265625 C 16.664062 -11.078125 16.765625 -10.769531 16.765625 -10.34375 L 16.765625 -7.15625 C 16.765625 -6.914062 16.734375 -6.71875 16.671875 -6.5625 C 16.609375 -6.40625 16.519531 -6.273438 16.40625 -6.171875 L 12.9375 -3.296875 C 12.875 -3.222656 12.765625 -3.160156 12.609375 -3.109375 C 12.460938 -3.054688 12.300781 -3.03125 12.125 -3.03125 L 11.1875 -3.03125 L 11.1875 -0.953125 C 11.1875 -0.722656 11.15625 -0.53125 11.09375 -0.375 C 11.03125 -0.21875 10.9375 -0.0820312 10.8125 0.03125 L 7.359375 2.890625 C 7.285156 2.960938 7.171875 3.023438 7.015625 3.078125 C 6.867188 3.128906 6.707031 3.15625 6.53125 3.15625 Z M 9.96875 0 C 10.300781 0 10.539062 -0.0703125 10.6875 -0.21875 C 10.84375 -0.375 10.921875 -0.617188 10.921875 -0.953125 L 10.921875 -6.1875 L 15.546875 -6.1875 C 15.878906 -6.1875 16.117188 -6.257812 16.265625 -6.40625 C 16.421875 -6.5625 16.5 -6.8125 16.5 -7.15625 L 16.5 -10.34375 C 16.5 -10.675781 16.421875 -10.914062 16.265625 -11.0625 C 16.117188 -11.21875 15.878906 -11.296875 15.546875 -11.296875 L 10.921875 -11.296875 L 10.921875 -14.0625 L 17.703125 -14.0625 C 18.035156 -14.0625 18.273438 -14.132812 18.421875 -14.28125 C 18.578125 -14.4375 18.65625 -14.679688 18.65625 -15.015625 L 18.65625 -18.171875 C 18.65625 -18.515625 18.578125 -18.757812 18.421875 -18.90625 C 18.273438 -19.0625 18.035156 -19.140625 17.703125 -19.140625 L 5.84375 -19.140625 C 5.507812 -19.140625 5.265625 -19.0625 5.109375 -18.90625 C 4.960938 -18.757812 4.890625 -18.515625 4.890625 -18.171875 L 4.890625 -0.953125 C 4.890625 -0.617188 4.960938 -0.375 5.109375 -0.21875 C 5.265625 -0.0703125 5.507812 0 5.84375 0 Z M 7.78125 -2.390625 L 7.78125 -16.75 L 16.265625 -16.75 L 16.265625 -16.484375 L 8.046875 -16.484375 L 8.046875 -8.875 L 14.109375 -8.875 L 14.109375 -8.609375 L 8.046875 -8.609375 L 8.046875 -2.390625 Z M 7.78125 -2.390625 "/></g></g></g><g fill="#ee2d5a" fill-opacity="1"><g transform="translate(103.767347, 163.862831)"><g/></g></g><g fill="#ee2d5a" fill-opacity="1"><g transform="translate(112.405256, 163.862831)"><g/></g></g><g fill="#ee2d5a" fill-opacity="1"><g transform="translate(121.040784, 163.862831)"><g><path d="M 7.578125 -8.046875 L 7.578125 -7.234375 L 17.9375 -7.234375 L 17.9375 -8.046875 C 17.9375 -8.523438 17.894531 -8.96875 17.8125 -9.375 C 17.738281 -9.789062 17.640625 -10.175781 17.515625 -10.53125 L 15.6875 -14.859375 C 15.488281 -15.316406 15.28125 -15.703125 15.0625 -16.015625 C 14.851562 -16.328125 14.5 -16.484375 14 -16.484375 L 11.40625 -16.484375 C 10.875 -16.484375 10.5 -16.328125 10.28125 -16.015625 C 10.070312 -15.703125 9.878906 -15.328125 9.703125 -14.890625 L 8 -10.53125 C 7.875 -10.175781 7.769531 -9.789062 7.6875 -9.375 C 7.613281 -8.96875 7.578125 -8.523438 7.578125 -8.046875 Z M 11.828125 -13.5625 C 11.898438 -13.71875 11.972656 -13.828125 12.046875 -13.890625 C 12.128906 -13.960938 12.222656 -14 12.328125 -14 L 13 -14 C 13.101562 -14 13.191406 -13.960938 13.265625 -13.890625 C 13.347656 -13.828125 13.425781 -13.71875 13.5 -13.5625 L 14.75 -9.515625 L 10.578125 -9.515625 Z M 17.9375 -2.390625 L 17.9375 -6.96875 L 7.578125 -6.96875 L 7.578125 -2.390625 L 7.3125 -2.390625 L 7.3125 -8.046875 C 7.3125 -8.546875 7.347656 -9.003906 7.421875 -9.421875 C 7.503906 -9.835938 7.617188 -10.238281 7.765625 -10.625 L 9.46875 -14.984375 C 9.65625 -15.484375 9.875 -15.898438 10.125 -16.234375 C 10.375 -16.578125 10.800781 -16.75 11.40625 -16.75 L 14 -16.75 C 14.59375 -16.75 15.003906 -16.578125 15.234375 -16.234375 C 15.472656 -15.898438 15.703125 -15.476562 15.921875 -14.96875 L 17.75 -10.625 C 17.894531 -10.238281 18.003906 -9.835938 18.078125 -9.421875 C 18.160156 -9.003906 18.203125 -8.546875 18.203125 -8.046875 L 18.203125 -2.390625 Z M 10.3125 -0.953125 L 10.3125 -4.671875 L 15.015625 -4.671875 L 15.015625 -0.953125 C 15.015625 -0.617188 15.097656 -0.375 15.265625 -0.21875 C 15.429688 -0.0703125 15.691406 0 16.046875 0 L 20.0625 0 C 20.40625 0 20.648438 -0.0703125 20.796875 -0.21875 C 20.941406 -0.375 21.015625 -0.617188 21.015625 -0.953125 L 21.015625 -7.96875 C 21.015625 -8.5 20.929688 -9.109375 20.765625 -9.796875 C 20.597656 -10.492188 20.335938 -11.300781 19.984375 -12.21875 L 17.671875 -18.265625 C 17.566406 -18.566406 17.398438 -18.785156 17.171875 -18.921875 C 16.953125 -19.066406 16.675781 -19.140625 16.34375 -19.140625 L 9.203125 -19.140625 C 8.847656 -19.140625 8.554688 -19.066406 8.328125 -18.921875 C 8.109375 -18.785156 7.945312 -18.566406 7.84375 -18.265625 L 5.53125 -12.21875 C 5.175781 -11.300781 4.910156 -10.492188 4.734375 -9.796875 C 4.566406 -9.109375 4.484375 -8.5 4.484375 -7.96875 L 4.484375 -0.953125 C 4.484375 -0.617188 4.554688 -0.375 4.703125 -0.21875 C 4.859375 -0.0703125 5.109375 0 5.453125 0 L 9.359375 0 C 9.691406 0 9.929688 -0.0703125 10.078125 -0.21875 C 10.234375 -0.375 10.3125 -0.617188 10.3125 -0.953125 Z M 6.75 2.890625 C 6.675781 2.960938 6.5625 3.023438 6.40625 3.078125 C 6.257812 3.128906 6.097656 3.15625 5.921875 3.15625 L 2.015625 3.15625 C 1.585938 3.15625 1.273438 3.054688 1.078125 2.859375 C 0.890625 2.671875 0.796875 2.363281 0.796875 1.9375 L 0.796875 -5.078125 C 0.796875 -5.628906 0.878906 -6.253906 1.046875 -6.953125 C 1.210938 -7.648438 1.484375 -8.476562 1.859375 -9.4375 L 4.140625 -15.4375 C 4.191406 -15.601562 4.257812 -15.742188 4.34375 -15.859375 C 4.425781 -15.972656 4.507812 -16.070312 4.59375 -16.15625 L 4.625 -16.1875 L 8.03125 -19.03125 C 8.164062 -19.15625 8.332031 -19.25 8.53125 -19.3125 C 8.726562 -19.375 8.953125 -19.40625 9.203125 -19.40625 L 16.34375 -19.40625 C 16.75 -19.40625 17.082031 -19.316406 17.34375 -19.140625 C 17.601562 -18.972656 17.789062 -18.710938 17.90625 -18.359375 L 20.21875 -12.328125 C 20.59375 -11.367188 20.863281 -10.539062 21.03125 -9.84375 C 21.207031 -9.144531 21.296875 -8.519531 21.296875 -7.96875 L 21.296875 -0.953125 C 21.296875 -0.722656 21.265625 -0.53125 21.203125 -0.375 C 21.140625 -0.21875 21.046875 -0.0820312 20.921875 0.03125 L 17.46875 2.890625 C 17.394531 2.960938 17.28125 3.023438 17.125 3.078125 C 16.976562 3.128906 16.816406 3.15625 16.640625 3.15625 L 12.625 3.15625 C 12.175781 3.15625 11.847656 3.050781 11.640625 2.84375 C 11.429688 2.644531 11.328125 2.34375 11.328125 1.9375 L 11.328125 -1.515625 L 10.578125 -1.515625 L 10.578125 -0.953125 C 10.578125 -0.722656 10.546875 -0.53125 10.484375 -0.375 C 10.421875 -0.21875 10.328125 -0.0820312 10.203125 0.03125 Z M 6.75 2.890625 "/></g></g></g><g fill="#ee2d5a" fill-opacity="1"><g transform="translate(143.100677, 163.862831)"><g><path d="M 1.9375 3.15625 C 1.507812 3.15625 1.195312 3.054688 1 2.859375 C 0.8125 2.671875 0.71875 2.363281 0.71875 1.9375 L 0.71875 -1.171875 C 0.71875 -1.398438 0.75 -1.59375 0.8125 -1.75 C 0.875 -1.914062 0.96875 -2.050781 1.09375 -2.15625 L 3.75 -4.390625 C 2.8125 -4.671875 2.070312 -5.148438 1.53125 -5.828125 C 0.988281 -6.515625 0.71875 -7.492188 0.71875 -8.765625 L 0.71875 -11.5625 C 0.71875 -12.351562 0.847656 -13.0625 1.109375 -13.6875 C 1.378906 -14.3125 1.765625 -14.832031 2.265625 -15.25 L 5.71875 -18.15625 C 6.195312 -18.539062 6.789062 -18.84375 7.5 -19.0625 C 8.207031 -19.289062 9.007812 -19.40625 9.90625 -19.40625 L 17.359375 -19.40625 C 17.785156 -19.40625 18.09375 -19.304688 18.28125 -19.109375 C 18.476562 -18.910156 18.578125 -18.597656 18.578125 -18.171875 L 18.578125 -15.015625 C 18.578125 -14.785156 18.546875 -14.585938 18.484375 -14.421875 C 18.421875 -14.265625 18.328125 -14.132812 18.203125 -14.03125 L 15.8125 -12.046875 C 16.925781 -11.796875 17.820312 -11.328125 18.5 -10.640625 C 19.1875 -9.960938 19.53125 -8.90625 19.53125 -7.46875 L 19.53125 -4.671875 C 19.53125 -3.878906 19.394531 -3.171875 19.125 -2.546875 C 18.863281 -1.929688 18.476562 -1.410156 17.96875 -0.984375 L 14.53125 1.890625 C 14.039062 2.296875 13.441406 2.609375 12.734375 2.828125 C 12.023438 3.046875 11.226562 3.15625 10.34375 3.15625 Z M 13.765625 0 C 15.460938 0 16.800781 -0.398438 17.78125 -1.203125 C 18.769531 -2.015625 19.265625 -3.171875 19.265625 -4.671875 L 19.265625 -7.46875 C 19.265625 -8.957031 18.882812 -10.019531 18.125 -10.65625 C 17.363281 -11.289062 16.363281 -11.695312 15.125 -11.875 L 11.15625 -12.40625 C 10.925781 -12.425781 10.75 -12.515625 10.625 -12.671875 C 10.5 -12.835938 10.4375 -13.035156 10.4375 -13.265625 C 10.4375 -13.492188 10.5 -13.679688 10.625 -13.828125 C 10.75 -13.984375 10.925781 -14.0625 11.15625 -14.0625 L 17.359375 -14.0625 C 17.691406 -14.0625 17.929688 -14.132812 18.078125 -14.28125 C 18.234375 -14.4375 18.3125 -14.679688 18.3125 -15.015625 L 18.3125 -18.171875 C 18.3125 -18.515625 18.234375 -18.757812 18.078125 -18.90625 C 17.929688 -19.0625 17.691406 -19.140625 17.359375 -19.140625 L 9.90625 -19.140625 C 8.1875 -19.140625 6.835938 -18.734375 5.859375 -17.921875 C 4.890625 -17.117188 4.40625 -15.960938 4.40625 -14.453125 L 4.40625 -11.671875 C 4.40625 -10.179688 4.78125 -9.113281 5.53125 -8.46875 C 6.289062 -7.832031 7.289062 -7.425781 8.53125 -7.25 L 12.515625 -6.703125 C 12.742188 -6.679688 12.914062 -6.597656 13.03125 -6.453125 C 13.144531 -6.316406 13.203125 -6.097656 13.203125 -5.796875 C 13.203125 -5.578125 13.144531 -5.390625 13.03125 -5.234375 C 12.914062 -5.085938 12.742188 -5.015625 12.515625 -5.015625 L 5.375 -5.015625 C 5.03125 -5.015625 4.78125 -4.941406 4.625 -4.796875 C 4.476562 -4.648438 4.40625 -4.40625 4.40625 -4.0625 L 4.40625 -0.953125 C 4.40625 -0.617188 4.476562 -0.375 4.625 -0.21875 C 4.78125 -0.0703125 5.03125 0 5.375 0 Z M 15.921875 -16.75 L 15.921875 -16.484375 L 10.015625 -16.484375 C 9.273438 -16.484375 8.679688 -16.273438 8.234375 -15.859375 C 7.796875 -15.453125 7.578125 -14.941406 7.578125 -14.328125 L 7.578125 -12.140625 C 7.578125 -11.523438 7.695312 -11.09375 7.9375 -10.84375 C 8.1875 -10.59375 8.519531 -10.429688 8.9375 -10.359375 L 14.53125 -9.21875 C 15.0625 -9.113281 15.5 -8.882812 15.84375 -8.53125 C 16.195312 -8.175781 16.375 -7.539062 16.375 -6.625 L 16.375 -5.078125 C 16.375 -4.296875 16.109375 -3.648438 15.578125 -3.140625 C 15.046875 -2.640625 14.328125 -2.390625 13.421875 -2.390625 L 6.796875 -2.390625 L 6.796875 -2.65625 L 13.421875 -2.65625 C 14.234375 -2.65625 14.882812 -2.878906 15.375 -3.328125 C 15.863281 -3.785156 16.109375 -4.367188 16.109375 -5.078125 L 16.109375 -6.625 C 16.109375 -7.445312 15.960938 -8.015625 15.671875 -8.328125 C 15.378906 -8.640625 14.984375 -8.847656 14.484375 -8.953125 L 8.875 -10.09375 C 8.414062 -10.1875 8.039062 -10.367188 7.75 -10.640625 C 7.457031 -10.921875 7.3125 -11.421875 7.3125 -12.140625 L 7.3125 -14.328125 C 7.3125 -15.035156 7.554688 -15.613281 8.046875 -16.0625 C 8.546875 -16.519531 9.203125 -16.75 10.015625 -16.75 Z M 15.921875 -16.75 "/></g></g></g><g fill="#ee2d5a" fill-opacity="1"><g transform="translate(163.034315, 163.862831)"><g><path d="M 7.765625 -2.390625 L 7.765625 -16.75 L 8.03125 -16.75 L 8.03125 -9.703125 L 18.234375 -9.703125 L 18.234375 -16.75 L 18.5 -16.75 L 18.5 -2.390625 L 18.234375 -2.390625 L 18.234375 -9.4375 L 8.03125 -9.4375 L 8.03125 -2.390625 Z M 9.96875 0 C 10.300781 0 10.539062 -0.0703125 10.6875 -0.21875 C 10.84375 -0.375 10.921875 -0.617188 10.921875 -0.953125 L 10.921875 -6.859375 L 15.359375 -6.859375 L 15.359375 -0.953125 C 15.359375 -0.617188 15.429688 -0.375 15.578125 -0.21875 C 15.734375 -0.0703125 15.976562 0 16.3125 0 L 20.4375 0 C 20.769531 0 21.007812 -0.0703125 21.15625 -0.21875 C 21.3125 -0.375 21.390625 -0.617188 21.390625 -0.953125 L 21.390625 -18.171875 C 21.390625 -18.515625 21.3125 -18.757812 21.15625 -18.90625 C 21.007812 -19.0625 20.769531 -19.140625 20.4375 -19.140625 L 16.3125 -19.140625 C 15.976562 -19.140625 15.734375 -19.0625 15.578125 -18.90625 C 15.429688 -18.757812 15.359375 -18.515625 15.359375 -18.171875 L 15.359375 -12.40625 L 10.921875 -12.40625 L 10.921875 -18.171875 C 10.921875 -18.515625 10.84375 -18.757812 10.6875 -18.90625 C 10.539062 -19.0625 10.300781 -19.140625 9.96875 -19.140625 L 5.84375 -19.140625 C 5.507812 -19.140625 5.265625 -19.0625 5.109375 -18.90625 C 4.960938 -18.757812 4.890625 -18.515625 4.890625 -18.171875 L 4.890625 -0.953125 C 4.890625 -0.617188 4.960938 -0.375 5.109375 -0.21875 C 5.265625 -0.0703125 5.507812 0 5.84375 0 Z M 10.8125 0.03125 L 7.359375 2.890625 C 7.285156 2.960938 7.171875 3.023438 7.015625 3.078125 C 6.867188 3.128906 6.707031 3.15625 6.53125 3.15625 L 2.421875 3.15625 C 1.992188 3.15625 1.679688 3.054688 1.484375 2.859375 C 1.296875 2.671875 1.203125 2.363281 1.203125 1.9375 L 1.203125 -15.28125 C 1.203125 -15.507812 1.226562 -15.703125 1.28125 -15.859375 C 1.34375 -16.023438 1.4375 -16.160156 1.5625 -16.265625 L 5 -19.15625 C 5.082031 -19.226562 5.195312 -19.285156 5.34375 -19.328125 C 5.5 -19.378906 5.664062 -19.40625 5.84375 -19.40625 L 9.96875 -19.40625 C 10.394531 -19.40625 10.703125 -19.304688 10.890625 -19.109375 C 11.085938 -18.910156 11.1875 -18.597656 11.1875 -18.171875 L 11.1875 -12.671875 L 11.671875 -12.671875 L 11.671875 -15.28125 C 11.671875 -15.507812 11.703125 -15.703125 11.765625 -15.859375 C 11.828125 -16.023438 11.921875 -16.160156 12.046875 -16.265625 L 15.46875 -19.15625 C 15.550781 -19.226562 15.664062 -19.285156 15.8125 -19.328125 C 15.96875 -19.378906 16.132812 -19.40625 16.3125 -19.40625 L 20.4375 -19.40625 C 20.863281 -19.40625 21.171875 -19.304688 21.359375 -19.109375 C 21.554688 -18.910156 21.65625 -18.597656 21.65625 -18.171875 L 21.65625 -0.953125 C 21.65625 -0.722656 21.625 -0.53125 21.5625 -0.375 C 21.5 -0.21875 21.410156 -0.0820312 21.296875 0.03125 L 17.828125 2.890625 C 17.765625 2.960938 17.65625 3.023438 17.5 3.078125 C 17.351562 3.128906 17.191406 3.15625 17.015625 3.15625 L 12.890625 3.15625 C 12.460938 3.15625 12.148438 3.054688 11.953125 2.859375 C 11.765625 2.671875 11.671875 2.363281 11.671875 1.9375 L 11.671875 -3.6875 L 11.1875 -3.6875 L 11.1875 -0.953125 C 11.1875 -0.722656 11.15625 -0.53125 11.09375 -0.375 C 11.03125 -0.21875 10.9375 -0.0820312 10.8125 0.03125 Z M 10.8125 0.03125 "/></g></g></g><g fill="#ee2d5a" fill-opacity="1"><g transform="translate(185.864979, 163.862831)"><g/></g></g><g fill="#ee2d5a" fill-opacity="1"><g transform="translate(194.502887, 163.862831)"><g><path d="M 1.9375 3.15625 C 1.507812 3.15625 1.195312 3.054688 1 2.859375 C 0.8125 2.671875 0.71875 2.363281 0.71875 1.9375 L 0.71875 -1.171875 C 0.71875 -1.398438 0.75 -1.59375 0.8125 -1.75 C 0.875 -1.914062 0.96875 -2.050781 1.09375 -2.15625 L 3.75 -4.390625 C 2.8125 -4.671875 2.070312 -5.148438 1.53125 -5.828125 C 0.988281 -6.515625 0.71875 -7.492188 0.71875 -8.765625 L 0.71875 -11.5625 C 0.71875 -12.351562 0.847656 -13.0625 1.109375 -13.6875 C 1.378906 -14.3125 1.765625 -14.832031 2.265625 -15.25 L 5.71875 -18.15625 C 6.195312 -18.539062 6.789062 -18.84375 7.5 -19.0625 C 8.207031 -19.289062 9.007812 -19.40625 9.90625 -19.40625 L 17.359375 -19.40625 C 17.785156 -19.40625 18.09375 -19.304688 18.28125 -19.109375 C 18.476562 -18.910156 18.578125 -18.597656 18.578125 -18.171875 L 18.578125 -15.015625 C 18.578125 -14.785156 18.546875 -14.585938 18.484375 -14.421875 C 18.421875 -14.265625 18.328125 -14.132812 18.203125 -14.03125 L 15.8125 -12.046875 C 16.925781 -11.796875 17.820312 -11.328125 18.5 -10.640625 C 19.1875 -9.960938 19.53125 -8.90625 19.53125 -7.46875 L 19.53125 -4.671875 C 19.53125 -3.878906 19.394531 -3.171875 19.125 -2.546875 C 18.863281 -1.929688 18.476562 -1.410156 17.96875 -0.984375 L 14.53125 1.890625 C 14.039062 2.296875 13.441406 2.609375 12.734375 2.828125 C 12.023438 3.046875 11.226562 3.15625 10.34375 3.15625 Z M 13.765625 0 C 15.460938 0 16.800781 -0.398438 17.78125 -1.203125 C 18.769531 -2.015625 19.265625 -3.171875 19.265625 -4.671875 L 19.265625 -7.46875 C 19.265625 -8.957031 18.882812 -10.019531 18.125 -10.65625 C 17.363281 -11.289062 16.363281 -11.695312 15.125 -11.875 L 11.15625 -12.40625 C 10.925781 -12.425781 10.75 -12.515625 10.625 -12.671875 C 10.5 -12.835938 10.4375 -13.035156 10.4375 -13.265625 C 10.4375 -13.492188 10.5 -13.679688 10.625 -13.828125 C 10.75 -13.984375 10.925781 -14.0625 11.15625 -14.0625 L 17.359375 -14.0625 C 17.691406 -14.0625 17.929688 -14.132812 18.078125 -14.28125 C 18.234375 -14.4375 18.3125 -14.679688 18.3125 -15.015625 L 18.3125 -18.171875 C 18.3125 -18.515625 18.234375 -18.757812 18.078125 -18.90625 C 17.929688 -19.0625 17.691406 -19.140625 17.359375 -19.140625 L 9.90625 -19.140625 C 8.1875 -19.140625 6.835938 -18.734375 5.859375 -17.921875 C 4.890625 -17.117188 4.40625 -15.960938 4.40625 -14.453125 L 4.40625 -11.671875 C 4.40625 -10.179688 4.78125 -9.113281 5.53125 -8.46875 C 6.289062 -7.832031 7.289062 -7.425781 8.53125 -7.25 L 12.515625 -6.703125 C 12.742188 -6.679688 12.914062 -6.597656 13.03125 -6.453125 C 13.144531 -6.316406 13.203125 -6.097656 13.203125 -5.796875 C 13.203125 -5.578125 13.144531 -5.390625 13.03125 -5.234375 C 12.914062 -5.085938 12.742188 -5.015625 12.515625 -5.015625 L 5.375 -5.015625 C 5.03125 -5.015625 4.78125 -4.941406 4.625 -4.796875 C 4.476562 -4.648438 4.40625 -4.40625 4.40625 -4.0625 L 4.40625 -0.953125 C 4.40625 -0.617188 4.476562 -0.375 4.625 -0.21875 C 4.78125 -0.0703125 5.03125 0 5.375 0 Z M 15.921875 -16.75 L 15.921875 -16.484375 L 10.015625 -16.484375 C 9.273438 -16.484375 8.679688 -16.273438 8.234375 -15.859375 C 7.796875 -15.453125 7.578125 -14.941406 7.578125 -14.328125 L 7.578125 -12.140625 C 7.578125 -11.523438 7.695312 -11.09375 7.9375 -10.84375 C 8.1875 -10.59375 8.519531 -10.429688 8.9375 -10.359375 L 14.53125 -9.21875 C 15.0625 -9.113281 15.5 -8.882812 15.84375 -8.53125 C 16.195312 -8.175781 16.375 -7.539062 16.375 -6.625 L 16.375 -5.078125 C 16.375 -4.296875 16.109375 -3.648438 15.578125 -3.140625 C 15.046875 -2.640625 14.328125 -2.390625 13.421875 -2.390625 L 6.796875 -2.390625 L 6.796875 -2.65625 L 13.421875 -2.65625 C 14.234375 -2.65625 14.882812 -2.878906 15.375 -3.328125 C 15.863281 -3.785156 16.109375 -4.367188 16.109375 -5.078125 L 16.109375 -6.625 C 16.109375 -7.445312 15.960938 -8.015625 15.671875 -8.328125 C 15.378906 -8.640625 14.984375 -8.847656 14.484375 -8.953125 L 8.875 -10.09375 C 8.414062 -10.1875 8.039062 -10.367188 7.75 -10.640625 C 7.457031 -10.921875 7.3125 -11.421875 7.3125 -12.140625 L 7.3125 -14.328125 C 7.3125 -15.035156 7.554688 -15.613281 8.046875 -16.0625 C 8.546875 -16.519531 9.203125 -16.75 10.015625 -16.75 Z M 15.921875 -16.75 "/></g></g></g><g fill="#ee2d5a" fill-opacity="1"><g transform="translate(214.436525, 163.862831)"><g><path d="M 7.578125 -8.046875 L 7.578125 -7.234375 L 17.9375 -7.234375 L 17.9375 -8.046875 C 17.9375 -8.523438 17.894531 -8.96875 17.8125 -9.375 C 17.738281 -9.789062 17.640625 -10.175781 17.515625 -10.53125 L 15.6875 -14.859375 C 15.488281 -15.316406 15.28125 -15.703125 15.0625 -16.015625 C 14.851562 -16.328125 14.5 -16.484375 14 -16.484375 L 11.40625 -16.484375 C 10.875 -16.484375 10.5 -16.328125 10.28125 -16.015625 C 10.070312 -15.703125 9.878906 -15.328125 9.703125 -14.890625 L 8 -10.53125 C 7.875 -10.175781 7.769531 -9.789062 7.6875 -9.375 C 7.613281 -8.96875 7.578125 -8.523438 7.578125 -8.046875 Z M 11.828125 -13.5625 C 11.898438 -13.71875 11.972656 -13.828125 12.046875 -13.890625 C 12.128906 -13.960938 12.222656 -14 12.328125 -14 L 13 -14 C 13.101562 -14 13.191406 -13.960938 13.265625 -13.890625 C 13.347656 -13.828125 13.425781 -13.71875 13.5 -13.5625 L 14.75 -9.515625 L 10.578125 -9.515625 Z M 17.9375 -2.390625 L 17.9375 -6.96875 L 7.578125 -6.96875 L 7.578125 -2.390625 L 7.3125 -2.390625 L 7.3125 -8.046875 C 7.3125 -8.546875 7.347656 -9.003906 7.421875 -9.421875 C 7.503906 -9.835938 7.617188 -10.238281 7.765625 -10.625 L 9.46875 -14.984375 C 9.65625 -15.484375 9.875 -15.898438 10.125 -16.234375 C 10.375 -16.578125 10.800781 -16.75 11.40625 -16.75 L 14 -16.75 C 14.59375 -16.75 15.003906 -16.578125 15.234375 -16.234375 C 15.472656 -15.898438 15.703125 -15.476562 15.921875 -14.96875 L 17.75 -10.625 C 17.894531 -10.238281 18.003906 -9.835938 18.078125 -9.421875 C 18.160156 -9.003906 18.203125 -8.546875 18.203125 -8.046875 L 18.203125 -2.390625 Z M 10.3125 -0.953125 L 10.3125 -4.671875 L 15.015625 -4.671875 L 15.015625 -0.953125 C 15.015625 -0.617188 15.097656 -0.375 15.265625 -0.21875 C 15.429688 -0.0703125 15.691406 0 16.046875 0 L 20.0625 0 C 20.40625 0 20.648438 -0.0703125 20.796875 -0.21875 C 20.941406 -0.375 21.015625 -0.617188 21.015625 -0.953125 L 21.015625 -7.96875 C 21.015625 -8.5 20.929688 -9.109375 20.765625 -9.796875 C 20.597656 -10.492188 20.335938 -11.300781 19.984375 -12.21875 L 17.671875 -18.265625 C 17.566406 -18.566406 17.398438 -18.785156 17.171875 -18.921875 C 16.953125 -19.066406 16.675781 -19.140625 16.34375 -19.140625 L 9.203125 -19.140625 C 8.847656 -19.140625 8.554688 -19.066406 8.328125 -18.921875 C 8.109375 -18.785156 7.945312 -18.566406 7.84375 -18.265625 L 5.53125 -12.21875 C 5.175781 -11.300781 4.910156 -10.492188 4.734375 -9.796875 C 4.566406 -9.109375 4.484375 -8.5 4.484375 -7.96875 L 4.484375 -0.953125 C 4.484375 -0.617188 4.554688 -0.375 4.703125 -0.21875 C 4.859375 -0.0703125 5.109375 0 5.453125 0 L 9.359375 0 C 9.691406 0 9.929688 -0.0703125 10.078125 -0.21875 C 10.234375 -0.375 10.3125 -0.617188 10.3125 -0.953125 Z M 6.75 2.890625 C 6.675781 2.960938 6.5625 3.023438 6.40625 3.078125 C 6.257812 3.128906 6.097656 3.15625 5.921875 3.15625 L 2.015625 3.15625 C 1.585938 3.15625 1.273438 3.054688 1.078125 2.859375 C 0.890625 2.671875 0.796875 2.363281 0.796875 1.9375 L 0.796875 -5.078125 C 0.796875 -5.628906 0.878906 -6.253906 1.046875 -6.953125 C 1.210938 -7.648438 1.484375 -8.476562 1.859375 -9.4375 L 4.140625 -15.4375 C 4.191406 -15.601562 4.257812 -15.742188 4.34375 -15.859375 C 4.425781 -15.972656 4.507812 -16.070312 4.59375 -16.15625 L 4.625 -16.1875 L 8.03125 -19.03125 C 8.164062 -19.15625 8.332031 -19.25 8.53125 -19.3125 C 8.726562 -19.375 8.953125 -19.40625 9.203125 -19.40625 L 16.34375 -19.40625 C 16.75 -19.40625 17.082031 -19.316406 17.34375 -19.140625 C 17.601562 -18.972656 17.789062 -18.710938 17.90625 -18.359375 L 20.21875 -12.328125 C 20.59375 -11.367188 20.863281 -10.539062 21.03125 -9.84375 C 21.207031 -9.144531 21.296875 -8.519531 21.296875 -7.96875 L 21.296875 -0.953125 C 21.296875 -0.722656 21.265625 -0.53125 21.203125 -0.375 C 21.140625 -0.21875 21.046875 -0.0820312 20.921875 0.03125 L 17.46875 2.890625 C 17.394531 2.960938 17.28125 3.023438 17.125 3.078125 C 16.976562 3.128906 16.816406 3.15625 16.640625 3.15625 L 12.625 3.15625 C 12.175781 3.15625 11.847656 3.050781 11.640625 2.84375 C 11.429688 2.644531 11.328125 2.34375 11.328125 1.9375 L 11.328125 -1.515625 L 10.578125 -1.515625 L 10.578125 -0.953125 C 10.578125 -0.722656 10.546875 -0.53125 10.484375 -0.375 C 10.421875 -0.21875 10.328125 -0.0820312 10.203125 0.03125 Z M 6.75 2.890625 "/></g></g></g><g fill="#ee2d5a" fill-opacity="1"><g transform="translate(236.496419, 163.862831)"><g><path d="M 15.953125 3.15625 L 2.421875 3.15625 C 1.992188 3.15625 1.679688 3.054688 1.484375 2.859375 C 1.296875 2.671875 1.203125 2.363281 1.203125 1.9375 L 1.203125 -15.28125 C 1.203125 -15.507812 1.226562 -15.703125 1.28125 -15.859375 C 1.34375 -16.023438 1.4375 -16.160156 1.5625 -16.265625 L 5 -19.15625 C 5.082031 -19.226562 5.195312 -19.285156 5.34375 -19.328125 C 5.5 -19.378906 5.664062 -19.40625 5.84375 -19.40625 L 9.96875 -19.40625 C 10.394531 -19.40625 10.703125 -19.304688 10.890625 -19.109375 C 11.085938 -18.910156 11.1875 -18.597656 11.1875 -18.171875 L 11.1875 -7.359375 L 11.25 -7.421875 L 14.671875 -10.3125 C 14.753906 -10.382812 14.867188 -10.441406 15.015625 -10.484375 C 15.171875 -10.523438 15.335938 -10.546875 15.515625 -10.546875 L 19.375 -10.546875 C 19.800781 -10.546875 20.109375 -10.445312 20.296875 -10.25 C 20.492188 -10.0625 20.59375 -9.753906 20.59375 -9.328125 L 20.59375 -0.953125 C 20.59375 -0.722656 20.5625 -0.53125 20.5 -0.375 C 20.4375 -0.21875 20.34375 -0.0820312 20.21875 0.03125 L 16.765625 2.890625 C 16.703125 2.960938 16.59375 3.023438 16.4375 3.078125 C 16.289062 3.128906 16.128906 3.15625 15.953125 3.15625 Z M 19.375 0 C 19.707031 0 19.945312 -0.0703125 20.09375 -0.21875 C 20.25 -0.375 20.328125 -0.617188 20.328125 -0.953125 L 20.328125 -9.328125 C 20.328125 -9.660156 20.25 -9.898438 20.09375 -10.046875 C 19.945312 -10.203125 19.707031 -10.28125 19.375 -10.28125 L 15.515625 -10.28125 C 15.179688 -10.28125 14.9375 -10.203125 14.78125 -10.046875 C 14.632812 -9.898438 14.5625 -9.660156 14.5625 -9.328125 L 14.5625 -5.015625 L 10.921875 -5.015625 L 10.921875 -18.171875 C 10.921875 -18.515625 10.84375 -18.757812 10.6875 -18.90625 C 10.539062 -19.0625 10.300781 -19.140625 9.96875 -19.140625 L 5.84375 -19.140625 C 5.507812 -19.140625 5.265625 -19.0625 5.109375 -18.90625 C 4.960938 -18.757812 4.890625 -18.515625 4.890625 -18.171875 L 4.890625 -0.953125 C 4.890625 -0.617188 4.960938 -0.375 5.109375 -0.21875 C 5.265625 -0.0703125 5.507812 0 5.84375 0 Z M 7.78125 -2.390625 L 7.78125 -16.75 L 8.046875 -16.75 L 8.046875 -2.65625 L 17.296875 -2.65625 L 17.296875 -7.890625 L 17.5625 -7.890625 L 17.5625 -2.390625 Z M 7.78125 -2.390625 "/></g></g></g><g fill="#ee2d5a" fill-opacity="1"><g transform="translate(257.626079, 163.862831)"><g><path d="M 14.75 3.15625 L 2.421875 3.15625 C 1.992188 3.15625 1.679688 3.054688 1.484375 2.859375 C 1.296875 2.671875 1.203125 2.363281 1.203125 1.9375 L 1.203125 -15.28125 C 1.203125 -15.507812 1.226562 -15.703125 1.28125 -15.859375 C 1.34375 -16.023438 1.4375 -16.160156 1.5625 -16.265625 L 5 -19.15625 C 5.082031 -19.226562 5.195312 -19.285156 5.34375 -19.328125 C 5.5 -19.378906 5.664062 -19.40625 5.84375 -19.40625 L 18.171875 -19.40625 C 18.597656 -19.40625 18.910156 -19.304688 19.109375 -19.109375 C 19.304688 -18.910156 19.40625 -18.597656 19.40625 -18.171875 L 19.40625 -15.0625 C 19.40625 -14.832031 19.375 -14.640625 19.3125 -14.484375 C 19.25 -14.328125 19.15625 -14.195312 19.03125 -14.09375 L 16.75 -12.203125 C 16.925781 -12.109375 17.050781 -11.972656 17.125 -11.796875 C 17.207031 -11.617188 17.25 -11.390625 17.25 -11.109375 L 17.25 -8.265625 C 17.25 -8.035156 17.21875 -7.835938 17.15625 -7.671875 C 17.09375 -7.515625 17 -7.382812 16.875 -7.28125 L 14.515625 -5.28125 L 18.171875 -5.28125 C 18.597656 -5.28125 18.910156 -5.179688 19.109375 -4.984375 C 19.304688 -4.796875 19.40625 -4.488281 19.40625 -4.0625 L 19.40625 -0.953125 C 19.40625 -0.722656 19.375 -0.53125 19.3125 -0.375 C 19.25 -0.21875 19.15625 -0.0820312 19.03125 0.03125 L 15.578125 2.890625 C 15.503906 2.960938 15.390625 3.023438 15.234375 3.078125 C 15.085938 3.128906 14.925781 3.15625 14.75 3.15625 Z M 18.171875 0 C 18.515625 0 18.757812 -0.0703125 18.90625 -0.21875 C 19.0625 -0.375 19.140625 -0.617188 19.140625 -0.953125 L 19.140625 -4.0625 C 19.140625 -4.40625 19.0625 -4.648438 18.90625 -4.796875 C 18.757812 -4.941406 18.515625 -5.015625 18.171875 -5.015625 L 10.84375 -5.015625 L 10.84375 -7.3125 L 16.03125 -7.3125 C 16.363281 -7.3125 16.601562 -7.382812 16.75 -7.53125 C 16.90625 -7.6875 16.984375 -7.929688 16.984375 -8.265625 L 16.984375 -11.109375 C 16.984375 -11.441406 16.90625 -11.679688 16.75 -11.828125 C 16.601562 -11.984375 16.363281 -12.0625 16.03125 -12.0625 L 10.84375 -12.0625 L 10.84375 -14.109375 L 18.171875 -14.109375 C 18.515625 -14.109375 18.757812 -14.179688 18.90625 -14.328125 C 19.0625 -14.484375 19.140625 -14.726562 19.140625 -15.0625 L 19.140625 -18.171875 C 19.140625 -18.515625 19.0625 -18.757812 18.90625 -18.90625 C 18.757812 -19.0625 18.515625 -19.140625 18.171875 -19.140625 L 5.84375 -19.140625 C 5.507812 -19.140625 5.265625 -19.0625 5.109375 -18.90625 C 4.960938 -18.757812 4.890625 -18.515625 4.890625 -18.171875 L 4.890625 -0.953125 C 4.890625 -0.617188 4.960938 -0.375 5.109375 -0.21875 C 5.265625 -0.0703125 5.507812 0 5.84375 0 Z M 16.75 -2.65625 L 16.75 -2.390625 L 7.78125 -2.390625 L 7.78125 -16.75 L 16.75 -16.75 L 16.75 -16.484375 L 8.046875 -16.484375 L 8.046875 -9.8125 L 14.59375 -9.8125 L 14.59375 -9.546875 L 8.046875 -9.546875 L 8.046875 -2.65625 Z M 16.75 -2.65625 "/></g></g></g></svg>