<?xml version="1.0" encoding="UTF-8"?>
<svg xmlns="http://www.w3.org/2000/svg" id="Icons" viewBox="0 0 60 60" width="512" height="512"><path d="M12,18a6,6,0,1,0-6-6A6.006,6.006,0,0,0,12,18ZM12,8a4,4,0,1,1-4,4A4,4,0,0,1,12,8Z"/><path d="M52,35V6a6.006,6.006,0,0,0-6-6H6A6.006,6.006,0,0,0,0,6V44a6.006,6.006,0,0,0,6,6H34.363A12.994,12.994,0,1,0,52,35Zm-5-1a12.971,12.971,0,0,0-9.943,4.643L27.914,29.5,39.293,18.121a1,1,0,0,1,1.414,0L50,27.414v6.949A12.961,12.961,0,0,0,47,34ZM6,2H46a4,4,0,0,1,4,4V24.586l-7.879-7.879a3.072,3.072,0,0,0-4.242,0L26.5,28.086,22.117,23.7a3,3,0,0,0-4.234,0L2,39.586V6A4,4,0,0,1,6,2ZM6,48a4,4,0,0,1-4-4V42.414l17.3-17.3a1,1,0,0,1,1.406,0L35.883,40.3A12.9,12.9,0,0,0,34,47c0,.338.025.669.051,1ZM47,58A11,11,0,1,1,58,47,11.013,11.013,0,0,1,47,58Z"/><path d="M52,44H50V42a3,3,0,0,0-6,0v2H42a3,3,0,0,0,0,6h2v2a3,3,0,0,0,6,0V50h2a3,3,0,0,0,0-6Zm0,4H49a1,1,0,0,0-1,1v3a1,1,0,0,1-2,0V49a1,1,0,0,0-1-1H42a1,1,0,0,1,0-2h3a1,1,0,0,0,1-1V42a1,1,0,0,1,2,0v3a1,1,0,0,0,1,1h3a1,1,0,0,1,0,2Z"/></svg>
