<?xml version="1.0" encoding="iso-8859-1"?>
<!-- Generator: Adobe Illustrator 19.0.0, SVG Export Plug-In . SVG Version: 6.00 Build 0)  -->
<svg version="1.1" id="Capa_1" xmlns="http://www.w3.org/2000/svg" xmlns:xlink="http://www.w3.org/1999/xlink" x="0px" y="0px"
	 viewBox="0 0 512.002 512.002" style="enable-background:new 0 0 512.002 512.002;" xml:space="preserve">
<g>
	<g>
		<path d="M511.333,4.406c-1.619-3.572-5.718-5.296-9.402-3.949l-463,169c-3.418,1.247-5.447,4.768-4.814,8.351
			c0.634,3.583,3.747,6.194,7.386,6.194h152.245c0,0,28.533,106.498,28.542,106.527c0.358,1.279,1.051,2.48,2.092,3.453
			c1.446,1.352,3.285,2.021,5.119,2.021c2.005,0,4.005-0.799,5.481-2.379c0.174-0.186,64.518-69.679,66.311-71.698
			c0.281-0.316,0.551-0.622,0.815-0.923h140.395c3.31,0,6.228-2.169,7.182-5.339l62-206c0.001-0.005,0.002-0.011,0.004-0.016
			c-0.002,0.001-0.005,0.002-0.007,0.003C512.183,7.971,512.108,6.116,511.333,4.406z M239.821,207.646
			c-1.332,1.064-2.312,2.583-2.673,4.385l-8.705,43.527l-20.272-75.68c6.493-3.813,22.517-12.922,60.898-34.23
			c3.621-2.011,4.927-6.576,2.917-10.198c-2.012-3.62-6.575-4.926-10.198-2.917c-20.518,11.392-63.627,35.838-64.618,36.469H83.923
			L414.397,48.376c-39.557,21.729-86.398,47.503-126.341,69.601c-3.624,2.005-4.937,6.568-2.932,10.193
			c2.004,3.624,6.569,4.938,10.193,2.932c42.851-23.707,93.644-51.646,134.859-74.28L239.845,207.623
			C239.836,207.63,239.829,207.639,239.821,207.646z M242.039,264.064l8.613-43.063h31.243
			C271.946,231.871,256.508,248.522,242.039,264.064z M436.927,206.002H266.045L490.436,28.216L436.927,206.002z"/>
	</g>
</g>
<g>
	<g>
		<path d="M180.806,295.198c-2.93-2.928-7.678-2.928-10.607,0l-65.544,65.545c0.231-3.392,0.348-6.81,0.348-10.241
			c0-13.117-5.502-25.775-15.094-34.729c-9.728-9.08-22.429-13.57-35.759-12.655c-23.483,1.62-42.412,20.549-44.032,44.032
			c-0.919,13.332,3.575,26.031,12.655,35.759c8.954,9.592,21.612,15.094,34.729,15.094c8.779,0,17.329-1.496,25.357-4.368
			c-6.46,18.83-17.182,36.086-31.673,50.576l-15.988,15.988c-2.929,2.93-2.929,7.678,0,10.607c1.465,1.464,3.385,2.196,5.304,2.196
			s3.839-0.732,5.304-2.196l15.988-15.988c19.788-19.789,33.264-44.212,39.411-70.82c3.313-2.38,6.457-5.049,9.399-7.99
			l70.201-70.201C183.735,302.876,183.735,298.128,180.806,295.198z M87.786,374.844c-9.092,5.321-19.47,8.158-30.283,8.158
			c-9.106,0-17.546-3.668-23.764-10.329c-6.212-6.655-9.286-15.354-8.656-24.492c1.106-16.052,14.047-28.992,30.099-30.099
			c0.783-0.054,1.562-0.081,2.336-0.081c8.276,0,16.07,3.057,22.156,8.737c6.661,6.218,10.329,14.657,10.329,23.764
			C90.002,358.758,89.252,366.896,87.786,374.844z"/>
	</g>
</g>
<g>
	<g>
		<path d="M398.081,268.569c-3.53-2.166-8.149-1.06-10.314,2.471l-33.268,54.23c-0.186-0.865-0.382-1.729-0.589-2.594
			c-2.389-9.968-8.875-18.586-17.795-23.645c-9.048-5.129-19.516-6.233-29.477-3.107c-17.554,5.507-28.494,23.342-25.448,41.484
			c1.729,10.297,7.456,19.128,16.127,24.868c8.552,5.659,19.174,7.533,29.143,5.148c5.195-1.245,10.114-3.168,14.659-5.696
			c-1.789,13.009-6.275,25.622-13.348,37.151l-8.755,14.271c-2.166,3.531-1.06,8.148,2.471,10.314
			c1.224,0.751,2.577,1.108,3.915,1.108c2.521,0,4.984-1.272,6.399-3.579l8.755-14.271c10.901-17.77,16.486-37.771,16.455-58.104
			c1.858-2.206,3.563-4.567,5.099-7.071l38.441-62.665C402.717,275.352,401.611,270.735,398.081,268.569z M322.964,352.838
			c-6.027,1.444-12.195,0.354-17.368-3.069c-5.167-3.42-8.581-8.69-9.613-14.842c-1.813-10.798,4.698-21.412,15.146-24.689
			c2.223-0.697,4.487-1.043,6.732-1.043c3.766,0,7.479,0.972,10.854,2.887c5.396,3.06,9.162,8.064,10.606,14.092
			c1.325,5.53,2.156,11.102,2.501,16.661C336.555,347.678,330.114,351.125,322.964,352.838z"/>
	</g>
</g>
<g>
	<g>
		<path d="M29.651,481.049c-3.009-2.843-7.757-2.71-10.601,0.303l-17,18c-2.845,3.011-2.709,7.758,0.303,10.602
			c1.449,1.369,3.3,2.048,5.148,2.048c1.991,0,3.979-0.788,5.453-2.351l17-18C32.799,488.64,32.663,483.893,29.651,481.049z"/>
	</g>
</g>
<g>
	<g>
		<path d="M218.833,384.379c-3.383-2.394-8.062-1.59-10.454,1.792l-29,41c-2.392,3.382-1.59,8.063,1.792,10.454
			c1.315,0.931,2.827,1.378,4.324,1.378c2.353,0,4.668-1.104,6.13-3.17l29-41C223.017,391.451,222.215,386.77,218.833,384.379z"/>
	</g>
</g>
<g>
</g>
<g>
</g>
<g>
</g>
<g>
</g>
<g>
</g>
<g>
</g>
<g>
</g>
<g>
</g>
<g>
</g>
<g>
</g>
<g>
</g>
<g>
</g>
<g>
</g>
<g>
</g>
<g>
</g>
</svg>
