<svg height="512" viewBox="0 0 64 64" width="512" xmlns="http://www.w3.org/2000/svg"><g id="Coupon"><path d="m64 19.05v25.95a3.06 3.06 0 0 1 -3 3c-14.41 0-14 0-14 0v-.79a2.12 2.12 0 0 0 -1.7-2.21 2 2 0 0 0 -2.3 2v1h-39.95a3.06 3.06 0 0 1 -3-3v-25.95a3.06 3.06 0 0 1 3-3.05c41.59 0 40-.05 40 .05v.79a2.12 2.12 0 0 0 1.65 2.16 2 2 0 0 0 2.3-2v-1h14a3.06 3.06 0 0 1 3 3.05z" fill="#00bebd"/><path d="m62 19v26a1 1 0 0 1 -1 1h-12.13a4 4 0 0 0 -7.74 0h-38.13a1 1 0 0 1 -1-1v-26a1 1 0 0 1 1-1h38.13a4 4 0 0 0 7.74 0h12.13a1 1 0 0 1 1 1z" fill="#f3f3f3"/><path d="m44 26v-2a1 1 0 0 1 2 0v2a1 1 0 0 1 -2 0z" fill="#00bebd"/><path d="m44 33v-2a1 1 0 0 1 2 0v2a1 1 0 0 1 -2 0z" fill="#00bebd"/><path d="m44 40v-2a1 1 0 0 1 2 0v2a1 1 0 0 1 -2 0z" fill="#00bebd"/><g fill="#ffac00"><path d="m9 33h-3a1 1 0 0 1 0-2h3a2 2 0 0 0 0-4h-3a1 1 0 0 1 -1-1v-3a2 2 0 0 1 2-2h5a1 1 0 0 1 0 2h-5v2h2a4 4 0 0 1 0 8z"/><path d="m19 33a4 4 0 0 1 -4-4v-4a4 4 0 0 1 8 0v4a4 4 0 0 1 -4 4zm0-10a2 2 0 0 0 -2 2v4a2 2 0 0 0 4 0v-4a2 2 0 0 0 -2-2z"/><path d="m27 25a2 2 0 1 1 2-2 2 2 0 0 1 -2 2z"/><path d="m34 33a2 2 0 1 1 2-2 2 2 0 0 1 -2 2z"/><path d="m26 33a1 1 0 0 1 -.78-1.62l8-10a1 1 0 0 1 1.56 1.24c-8.63 10.8-8.1 10.38-8.78 10.38z"/><path d="m17 42v-5a2 2 0 0 1 2-2h1a1 1 0 0 1 0 2h-1v5a1 1 0 0 1 -2 0z"/><path d="m20 40h-2a1 1 0 0 1 0-2h2a1 1 0 0 1 0 2z"/><path d="m12 42v-5a2 2 0 0 1 2-2h1a1 1 0 0 1 0 2h-1v5a1 1 0 0 1 -2 0z"/><path d="m15 40h-2a1 1 0 0 1 0-2h2a1 1 0 0 1 0 2z"/><path d="m8 43a3 3 0 0 1 -3-3v-2a3 3 0 0 1 6 0v2a3 3 0 0 1 -3 3zm-1-5v2a1 1 0 0 0 2 0v-2a1 1 0 0 0 -2 0z"/></g><path d="m25 37h10v2h-10z" fill="#d9d9d9"/><path d="m25 41h12v2h-12z" fill="#d9d9d9"/><path d="m53 21h2v22h-2z" fill="#d9d9d9"/><path d="m57 23h2v18h-2z" fill="#d9d9d9"/><path d="m49 23h2v18h-2z" fill="#d9d9d9"/></g></svg>