<svg id="Layer_1" enable-background="new 0 0 512 512" height="512" viewBox="0 0 512 512" width="512" xmlns="http://www.w3.org/2000/svg"><g><g><path d="m473.1 106.1h-434.2c-7.8 0-14.1-6.3-14.1-14.1s6.3-14.1 14.1-14.1h434.3c7.8 0 14.1 6.3 14.1 14.1s-6.4 14.1-14.2 14.1z"/></g><g><path d="m473.1 270.1h-434.2c-7.8 0-14.1-6.3-14.1-14.1s6.3-14.1 14.1-14.1h434.3c7.8 0 14.1 6.3 14.1 14.1s-6.4 14.1-14.2 14.1z"/></g><g><path d="m473.1 434.1h-434.2c-7.8 0-14.1-6.3-14.1-14.1s6.3-14.1 14.1-14.1h434.3c7.8 0 14.1 6.3 14.1 14.1s-6.4 14.1-14.2 14.1z"/></g></g></svg>