<svg id="Layer_1" height="512" viewBox="0 0 64 64" width="512" xmlns="http://www.w3.org/2000/svg"><path d="m7.6254883 37.9052734c2.7607422 2.6992188 12.6357422 12.1171875 23.7988281 19.9726563.1728516.121582.3740234.1821289.5756836.1821289s.402832-.0605469.5756836-.1821289c11.1630859-7.8554688 21.0380859-17.2734375 23.7988281-19.9726563.7285156-.7119141 1.3212891-1.3920898 1.8125-2.0786133 5.496582-7.6757813 5.0180664-18.6884766-1.0893555-25.0717773-3.2724609-3.4194336-7.9272461-5.15625-12.7729492-4.7597656-4.7885742.390625-9.2114257 2.824707-12.324707 6.7387695-3.1132813-3.9140625-7.5361328-6.3481445-12.324707-6.7387695-4.8408203-.3950195-9.5004883 1.3398438-12.7729492 4.7597656-6.1074219 6.3833008-6.5859375 17.3959961-1.0893555 25.0717773.4912109.6865235 1.0839844 1.3666993 1.8125 2.0786133zm.722168-25.7675781c2.5854492-2.7026367 6.1689453-4.1977539 9.9746094-4.1977539.3945313 0 .7919922.0161133 1.1904297.0483398 4.6259766.3774414 8.8764648 2.9262695 11.6621094 6.9926758.3730469.5449219 1.2773438.5449219 1.6503906 0 2.7856445-4.0664063 7.0361328-6.6152344 11.6621094-6.9926758 4.2407227-.3432617 8.3110352 1.1669922 11.1650391 4.1494141 5.4643555 5.7109375 5.8637695 15.6049805.9086914 22.5249023-.4228516.590332-.940918 1.1835938-1.5849609 1.8129883-2.6860353 2.6259766-12.1723635 11.6748047-22.9760744 19.359375-10.8037109-7.6845703-20.2900391-16.7333984-22.9760742-19.359375-.644043-.6293945-1.1621094-1.2226563-1.5849609-1.8129883-4.9550782-6.9199218-4.5556641-16.8139648.9086914-22.5249023z"/></svg>