<?xml version="1.0" encoding="UTF-8" standalone="no"?>
<!-- Created with Inkscape (http://www.inkscape.org/) -->

<svg
   version="1.1"
   id="svg453"
   xml:space="preserve"
   width="682.66669"
   height="682.66669"
   viewBox="0 0 682.66669 682.66669"
   xmlns="http://www.w3.org/2000/svg"
   xmlns:svg="http://www.w3.org/2000/svg"><defs
     id="defs457"><clipPath
       clipPathUnits="userSpaceOnUse"
       id="clipPath467"><path
         d="M 0,512 H 512 V 0 H 0 Z"
         id="path465" /></clipPath></defs><g
     id="g459"
     transform="matrix(1.3333333,0,0,-1.3333333,0,682.66667)"><g
       id="g461"><g
         id="g463"
         clip-path="url(#clipPath467)"><g
           id="g469"
           transform="translate(244.8892,416.9961)"><path
             d="m 0,0 -199.372,-207.54 c -3.986,-4.148 -10.602,-4.215 -14.67,-0.147 l -20.339,20.339 c -3.954,3.954 -4.018,10.346 -0.144,14.378 L -3.703,67.309 c 8.083,8.414 21.544,8.414 29.627,0 L 256.747,-172.97 c 3.874,-4.032 3.81,-10.424 -0.145,-14.378 l -20.339,-20.339 c -4.067,-4.068 -10.683,-4.001 -14.669,0.147 L 22.221,0 C 16.159,6.311 6.063,6.311 0,0 Z"
             style="fill:none;stroke:#000000;stroke-width:15;stroke-linecap:round;stroke-linejoin:round;stroke-miterlimit:10;stroke-dasharray:none;stroke-opacity:1"
             id="path471" /></g><g
           id="g473"
           transform="translate(195.0586,21.3843)"><path
             d="m 0,0 v 92.419 c 0,33.657 27.284,60.941 60.941,60.941 v 0 c 33.657,0 60.942,-27.284 60.942,-60.941 l 0,-92.419 z"
             style="fill:none;stroke:#000000;stroke-width:15;stroke-linecap:round;stroke-linejoin:round;stroke-miterlimit:10;stroke-dasharray:none;stroke-opacity:1"
             id="path475" /></g><g
           id="g477"
           transform="translate(438.3096,43.9805)"><path
             d="m 0,0 c 0,-12.479 -10.116,-22.596 -22.596,-22.596 h -319.428 c -12.479,0 -22.596,10.117 -22.596,22.596 v 194.803 l 171.2,178.213 c 6.063,6.311 16.158,6.311 22.221,0 L 0,194.803 Z"
             style="fill:none;stroke:#000000;stroke-width:15;stroke-linecap:round;stroke-linejoin:round;stroke-miterlimit:10;stroke-dasharray:47, 35, 365, 0;stroke-dashoffset:0;stroke-opacity:1"
             id="path479" /></g></g></g></g></svg>
