<svg fill="none" height="512" viewBox="0 0 32 32" width="512" xmlns="http://www.w3.org/2000/svg"><path d="m16 3c-7.16797 0-13 5.83203-13 13 0 7.168 5.83203 13 13 13 7.168 0 13-5.832 13-13 0-7.16797-5.832-13-13-13zm0 2c6.0859 0 11 4.91406 11 11 0 6.0859-4.9141 11-11 11-6.08594 0-11-4.9141-11-11 0-6.08594 4.91406-11 11-11zm0 3c-2.75 0-5 2.25-5 5 0 1.5156.707 2.8633 1.7812 3.7812-2.25 1.168-3.7812 3.5196-3.7812 6.2188h2c0-2.7734 2.2266-5 5-5s5 2.2266 5 5h2c0-2.6992-1.5312-5.0508-3.7812-6.2188 1.0742-.9179 1.7812-2.2656 1.7812-3.7812 0-2.75-2.25-5-5-5zm0 2c1.668 0 3 1.332 3 3s-1.332 3-3 3-3-1.332-3-3 1.332-3 3-3z" fill="#000"/></svg>