<svg id="Capa_1" enable-background="new 0 0 512 512" height="512" viewBox="0 0 512 512" width="512" xmlns="http://www.w3.org/2000/svg"><g><path d="m410.688 118.498-11.336-3h-389.352c-5.523 0-10 4.477-10 10v261.005c0 5.523 4.477 10 10 10h389.352l11.336-3z" fill="#f9efda"/><path d="m410.688 374.726h-410.688v11.708c0 5.561 4.508 10.068 10.069 10.068h389.283l11.336-3z" fill="#f4ddb1"/><g><g><path d="m378.076 367.807h-24.992c-4.171 0-7.551-3.38-7.551-7.551s3.381-7.551 7.551-7.551h24.992c4.171 0 7.551 3.38 7.551 7.551.001 4.171-3.38 7.551-7.551 7.551zm-54.79 0h-24.992c-4.17 0-7.551-3.38-7.551-7.551s3.381-7.551 7.551-7.551h24.992c4.17 0 7.551 3.38 7.551 7.551s-3.38 7.551-7.551 7.551zm-54.79 0h-24.991c-4.17 0-7.551-3.38-7.551-7.551s3.381-7.551 7.551-7.551h24.991c4.171 0 7.551 3.38 7.551 7.551s-3.381 7.551-7.551 7.551zm-54.79 0h-24.992c-4.17 0-7.551-3.38-7.551-7.551s3.381-7.551 7.551-7.551h24.992c4.17 0 7.551 3.38 7.551 7.551.001 4.171-3.38 7.551-7.551 7.551zm-54.79 0h-24.992c-4.17 0-7.551-3.38-7.551-7.551s3.381-7.551 7.551-7.551h24.992c4.17 0 7.551 3.38 7.551 7.551.001 4.171-3.38 7.551-7.551 7.551zm-54.79 0h-24.992c-4.17 0-7.551-3.38-7.551-7.551s3.381-7.551 7.551-7.551h24.992c4.17 0 7.551 3.38 7.551 7.551.001 4.171-3.38 7.551-7.551 7.551z" fill="#efcb84"/></g><g><path d="m49.336 367.807h-8.055c-6.94 0-12.586-5.646-12.586-12.586v-8.055c0-4.171 3.381-7.551 7.551-7.551s7.551 3.38 7.551 7.551v5.538h5.538c4.17 0 7.551 3.38 7.551 7.551.002 4.172-3.379 7.552-7.55 7.552z" fill="#efcb84"/></g><g><path d="m36.247 326.651c-4.17 0-7.551-3.38-7.551-7.551v-23.54c0-4.171 3.381-7.551 7.551-7.551s7.551 3.38 7.551 7.551v23.54c0 4.17-3.381 7.551-7.551 7.551zm0-51.606c-4.17 0-7.551-3.38-7.551-7.551v-23.54c0-4.171 3.381-7.551 7.551-7.551s7.551 3.38 7.551 7.551v23.54c0 4.17-3.381 7.551-7.551 7.551zm0-51.607c-4.17 0-7.551-3.38-7.551-7.551v-23.54c0-4.171 3.381-7.551 7.551-7.551s7.551 3.38 7.551 7.551v23.54c0 4.171-3.381 7.551-7.551 7.551z" fill="#efcb84"/></g><g><path d="m36.247 171.832c-4.17 0-7.551-3.38-7.551-7.551v-8.055c0-6.94 5.646-12.586 12.586-12.586h8.055c4.17 0 7.551 3.38 7.551 7.551s-3.381 7.551-7.551 7.551h-5.538v5.538c-.001 4.172-3.382 7.552-7.552 7.552z" fill="#efcb84"/></g><g><path d="m378.076 158.743h-24.992c-4.171 0-7.551-3.38-7.551-7.551s3.381-7.551 7.551-7.551h24.992c4.171 0 7.551 3.38 7.551 7.551.001 4.17-3.38 7.551-7.551 7.551zm-54.79 0h-24.992c-4.17 0-7.551-3.38-7.551-7.551s3.381-7.551 7.551-7.551h24.992c4.17 0 7.551 3.38 7.551 7.551 0 4.17-3.38 7.551-7.551 7.551zm-54.79 0h-24.991c-4.17 0-7.551-3.38-7.551-7.551s3.381-7.551 7.551-7.551h24.991c4.171 0 7.551 3.38 7.551 7.551 0 4.17-3.381 7.551-7.551 7.551zm-54.79 0h-24.992c-4.17 0-7.551-3.38-7.551-7.551s3.381-7.551 7.551-7.551h24.992c4.17 0 7.551 3.38 7.551 7.551.001 4.17-3.38 7.551-7.551 7.551zm-54.79 0h-24.992c-4.17 0-7.551-3.38-7.551-7.551s3.381-7.551 7.551-7.551h24.992c4.17 0 7.551 3.38 7.551 7.551.001 4.17-3.38 7.551-7.551 7.551zm-54.79 0h-24.992c-4.17 0-7.551-3.38-7.551-7.551s3.381-7.551 7.551-7.551h24.992c4.17 0 7.551 3.38 7.551 7.551.001 4.17-3.38 7.551-7.551 7.551z" fill="#efcb84"/></g></g><g><g><g><path d="m102.676 278.359c-9.334 0-10.082-.25-11.073-.581-2.405-.8-4.284-2.709-5.021-5.103-1.245-4.043.724-6.621 3.704-10.523 2.346-3.072 6.714-8.79 14.038-19.256 2.339-3.341 3.298-5.683 3.685-7.133.484-2.468-1.737-4.751-4.209-4.728-2.062 0-3.846 1.462-4.241 3.476-.804 4.092-4.774 6.759-8.866 5.955s-6.758-4.773-5.954-8.865c1.783-9.078 9.8-15.668 19.061-15.668 10.711 0 19.425 8.715 19.425 19.425-.359 5.952-2.585 10.353-6.527 16.198-3.355 4.793-6.108 8.619-8.341 11.667 2.979-.019 6.151-.049 9.19-.087 4.138-.074 7.593 3.285 7.646 7.455.052 4.171-3.286 7.594-7.456 7.646-6.622.085-11.476.122-15.061.122z" fill="#e4989d"/></g></g><g><g><path d="m153.503 279.065c-11.563 0-20.97-9.407-20.97-20.97v-21.46c0-11.563 9.407-20.97 20.97-20.97s20.97 9.407 20.97 20.97v21.46c0 11.563-9.407 20.97-20.97 20.97zm0-48.297c-3.235 0-5.868 2.632-5.868 5.867v21.46c0 3.235 2.632 5.867 5.868 5.867 3.235 0 5.867-2.632 5.867-5.867v-21.46c0-3.234-2.632-5.867-5.867-5.867z" fill="#e4989d"/></g></g><g><path d="m73.509 259.062h-6.905c-4.17 0-7.551-3.38-7.551-7.551s3.381-7.551 7.551-7.551h6.905c4.17 0 7.551 3.38 7.551 7.551s-3.38 7.551-7.551 7.551z" fill="#e4989d"/></g></g><g fill="#e4989d"><path d="m313.824 229.427c4.171 0 7.551-3.38 7.551-7.552 0-4.171-3.381-7.551-7.551-7.551h-20.479c-4.17 0-7.551 3.38-7.551 7.551v50.528c0 4.171 3.381 7.551 7.551 7.551 4.171 0 7.551-3.38 7.551-7.551v-18.191h11.301c4.17 0 7.551-3.38 7.551-7.551s-3.381-7.551-7.551-7.551h-11.301v-9.682h12.928z"/><path d="m360.435 239.109h-11.301v-9.682h12.927c4.17 0 7.551-3.38 7.551-7.552 0-4.171-3.381-7.551-7.551-7.551h-20.479c-4.17 0-7.551 3.38-7.551 7.551v50.528c0 4.171 3.381 7.551 7.551 7.551 4.171 0 7.551-3.38 7.551-7.551v-18.191h11.301c4.171 0 7.551-3.38 7.551-7.551s-3.379-7.552-7.55-7.552z"/><path d="m238.42 214.138c-18.197 0-33.002 14.804-33.002 33.001s14.804 33.002 33.002 33.002c18.197 0 33.002-14.805 33.002-33.002s-14.805-33.001-33.002-33.001zm0 50.901c-9.869 0-17.899-8.029-17.899-17.899 0-9.869 8.029-17.898 17.899-17.898s17.899 8.029 17.899 17.898c0 9.87-8.029 17.899-17.899 17.899z"/></g><g><path d="m501.931 115.498h-102.58v281.005h102.58c5.561 0 10.069-4.508 10.069-10.069v-260.868c0-5.56-4.508-10.068-10.069-10.068z" fill="#ffd064"/></g><g><path d="m512 386.434v-260.868c0-5.561-4.508-10.069-10.069-10.069h-11.708v249.16c0 5.561-4.508 10.069-10.069 10.069h-80.803v21.776h102.58c5.561 0 10.069-4.508 10.069-10.068z" fill="#ffc250"/></g><g><g><path d="m474.746 324.876h-39.15c-4.171 0-7.551-3.38-7.551-7.551s3.381-7.551 7.551-7.551h39.15c4.171 0 7.551 3.38 7.551 7.551.001 4.171-3.38 7.551-7.551 7.551z" fill="#756e78"/></g><g><path d="m474.746 295.319h-39.15c-4.171 0-7.551-3.38-7.551-7.551s3.381-7.551 7.551-7.551h39.15c4.171 0 7.551 3.38 7.551 7.551.001 4.171-3.38 7.551-7.551 7.551z" fill="#756e78"/></g><g><path d="m474.746 254.916h-39.15c-4.171 0-7.551-3.38-7.551-7.551s3.381-7.551 7.551-7.551h39.15c4.171 0 7.551 3.38 7.551 7.551s-3.38 7.551-7.551 7.551z" fill="#756e78"/></g><g><path d="m474.746 228.06h-39.15c-4.171 0-7.551-3.38-7.551-7.551s3.381-7.551 7.551-7.551h39.15c4.171 0 7.551 3.38 7.551 7.551s-3.38 7.551-7.551 7.551z" fill="#756e78"/></g><g><path d="m474.746 201.674h-39.15c-4.171 0-7.551-3.38-7.551-7.551s3.381-7.551 7.551-7.551h39.15c4.171 0 7.551 3.38 7.551 7.551.001 4.17-3.38 7.551-7.551 7.551z" fill="#756e78"/></g></g></g></svg>